<?xml version="1.0" encoding="UTF-8" standalone="no"?>
<svg
   xmlns:dc="http://purl.org/dc/elements/1.1/"
   xmlns:cc="http://creativecommons.org/ns#"
   xmlns:rdf="http://www.w3.org/1999/02/22-rdf-syntax-ns#"
   xmlns:svg="http://www.w3.org/2000/svg"
   xmlns="http://www.w3.org/2000/svg"
   xmlns:sodipodi="http://sodipodi.sourceforge.net/DTD/sodipodi-0.dtd"
   xmlns:inkscape="http://www.inkscape.org/namespaces/inkscape"
   width="841mm"
   height="1189mm"
   viewBox="0 0 841 1189"
   version="1.1"
   id="svg8"
   inkscape:version="1.0.2 (e86c8708, 2021-01-15)"
   sodipodi:docname="drawing.svg">
  <defs
     id="defs2">
    <rect
       x="3252.1355"
       y="-400.9043"
       width="164.63803"
       height="157.15448"
       id="rect1005" />
    <rect
       x="3422.9524"
       y="-514.04761"
       width="368.90475"
       height="381"
       id="rect981" />
    <rect
       x="235.1012"
       y="-24.946428"
       width="673.55359"
       height="445.25595"
       id="rect835" />
    <rect
       x="235.1012"
       y="-24.946428"
       width="673.55359"
       height="445.25595"
       id="rect835-3" />
    <rect
       x="235.1012"
       y="-24.946428"
       width="673.55359"
       height="445.25595"
       id="rect858" />
    <rect
       x="235.1012"
       y="-24.946428"
       width="673.55359"
       height="445.25595"
       id="rect835-3-2" />
    <rect
       x="235.1012"
       y="-24.946428"
       width="673.55359"
       height="445.25595"
       id="rect918" />
  </defs>
  <sodipodi:namedview
     id="base"
     pagecolor="#858585"
     bordercolor="#666666"
     borderopacity="1.0"
     inkscape:pageopacity="0"
     inkscape:pageshadow="2"
     inkscape:zoom="0.5"
     inkscape:cx="17583.849"
     inkscape:cy="949.17363"
     inkscape:document-units="mm"
     inkscape:current-layer="layer1"
     inkscape:document-rotation="0"
     showgrid="false"
     inkscape:window-width="1920"
     inkscape:window-height="964"
     inkscape:window-x="0"
     inkscape:window-y="25"
     inkscape:window-maximized="1"
     inkscape:snap-global="true" />
  <metadata
     id="metadata5">
    <rdf:RDF>
      <cc:Work
         rdf:about="">
        <dc:format>image/svg+xml</dc:format>
        <dc:type
           rdf:resource="http://purl.org/dc/dcmitype/StillImage" />
        <dc:title></dc:title>
      </cc:Work>
    </rdf:RDF>
  </metadata>
  <g
     inkscape:groupmode="layer"
     id="layer2"
     inkscape:label="Layer 2"
     style="display:inline">
    <circle
       style="fill:#ffffff;stroke:#000000;stroke-width:8;stroke-linecap:round;stroke-miterlimit:4;stroke-dasharray:none;stroke-dashoffset:113.386;paint-order:stroke fill markers"
       id="path934-1"
       cx="4919.3091"
       cy="-39.288628"
       r="23.001318"
       inkscape:export-xdpi="93"
       inkscape:export-ydpi="93" />
  </g>
  <g
     inkscape:label="Layer 1"
     inkscape:groupmode="layer"
     id="layer1">
    <text
       xml:space="preserve"
       id="text833"
       style="font-size:70.55559999999999832px;line-height:1.25;font-family:'Upheaval TT (BRK)';-inkscape-font-specification:'Upheaval TT (BRK)';letter-spacing:5.29166999999999987px;white-space:pre;shape-inside:url(#rect835);fill:#ffffff;stroke:#000000;stroke-width:9.97002;stroke-miterlimit:4;stroke-dasharray:none;paint-order:stroke fill markers;"
       transform="matrix(0.99682602,0,0,1.4532852,700.26761,-677.45295)"><tspan
         x="235.10156"
         y="42.668521"><tspan
           style="font-style:normal;font-variant:normal;font-weight:normal;font-stretch:normal;font-family:ChunkFive;-inkscape-font-specification:ChunkFive;letter-spacing:26.4583px;fill:#ffffff;stroke:#000000;stroke-width:9.97002;stroke-miterlimit:4;stroke-dasharray:none;paint-order:stroke fill markers">ABCDEFGHI</tspan></tspan><tspan
         x="235.10156"
         y="136.74266"><tspan
           style="font-style:normal;font-variant:normal;font-weight:normal;font-stretch:normal;font-family:ChunkFive;-inkscape-font-specification:ChunkFive;letter-spacing:26.4583px;fill:#ffffff;stroke:#000000;stroke-width:9.97002;stroke-miterlimit:4;stroke-dasharray:none;paint-order:stroke fill markers">JKLMNOPQ</tspan></tspan><tspan
         x="235.10156"
         y="230.81679"><tspan
           style="font-style:normal;font-variant:normal;font-weight:normal;font-stretch:normal;font-family:ChunkFive;-inkscape-font-specification:ChunkFive;letter-spacing:26.4583px;fill:#ffffff;stroke:#000000;stroke-width:9.97002;stroke-miterlimit:4;stroke-dasharray:none;paint-order:stroke fill markers">RSTUVWXY</tspan></tspan><tspan
         x="235.10156"
         y="324.89093"><tspan
           style="font-style:normal;font-variant:normal;font-weight:normal;font-stretch:normal;font-family:ChunkFive;-inkscape-font-specification:ChunkFive;letter-spacing:26.4583px;fill:#ffffff;stroke:#000000;stroke-width:9.97002;stroke-miterlimit:4;stroke-dasharray:none;paint-order:stroke fill markers">Z</tspan></tspan></text>
    <text
       xml:space="preserve"
       id="text833-5"
       style="font-size:70.55559999999999832px;line-height:1.25;font-family:'Upheaval TT (BRK)';-inkscape-font-specification:'Upheaval TT (BRK)';letter-spacing:5.29166999999999987px;white-space:pre;shape-inside:url(#rect835-3);fill:#ffffff;stroke:#000000;stroke-width:10;stroke-miterlimit:4;stroke-dasharray:none;paint-order:stroke fill markers;"
       transform="translate(1594.8061,-582.45493)"><tspan
         x="235.10156"
         y="42.668521"><tspan
           style="font-style:normal;font-variant:normal;font-weight:normal;font-stretch:normal;font-family:ChunkFive;-inkscape-font-specification:ChunkFive;letter-spacing:26.4583px;fill:#ffffff;stroke:#000000;stroke-width:10;stroke-miterlimit:4;stroke-dasharray:none;paint-order:stroke fill markers">ABCDEFGHI</tspan></tspan><tspan
         x="235.10156"
         y="136.74266"><tspan
           style="font-style:normal;font-variant:normal;font-weight:normal;font-stretch:normal;font-family:ChunkFive;-inkscape-font-specification:ChunkFive;letter-spacing:26.4583px;fill:#ffffff;stroke:#000000;stroke-width:10;stroke-miterlimit:4;stroke-dasharray:none;paint-order:stroke fill markers">JKLMNOPQ</tspan></tspan><tspan
         x="235.10156"
         y="230.81679"><tspan
           style="font-style:normal;font-variant:normal;font-weight:normal;font-stretch:normal;font-family:ChunkFive;-inkscape-font-specification:ChunkFive;letter-spacing:26.4583px;fill:#ffffff;stroke:#000000;stroke-width:10;stroke-miterlimit:4;stroke-dasharray:none;paint-order:stroke fill markers">RSTUVWXY</tspan></tspan><tspan
         x="235.10156"
         y="324.89093"><tspan
           style="font-style:normal;font-variant:normal;font-weight:normal;font-stretch:normal;font-family:ChunkFive;-inkscape-font-specification:ChunkFive;letter-spacing:26.4583px;fill:#ffffff;stroke:#000000;stroke-width:10;stroke-miterlimit:4;stroke-dasharray:none;paint-order:stroke fill markers">Z</tspan></tspan></text>
    <text
       xml:space="preserve"
       id="text833-5-0"
       style="font-size:70.55559999999999832px;line-height:1.25;font-family:'Upheaval TT (BRK)';-inkscape-font-specification:'Upheaval TT (BRK)';letter-spacing:5.29166999999999987px;white-space:pre;shape-inside:url(#rect835-3-2);fill:#ffffff;stroke:#000000;stroke-width:10;stroke-miterlimit:4;stroke-dasharray:none;paint-order:stroke fill markers;"
       transform="matrix(3.4498629,0,0,3.4498629,66.794159,136.32801)"
       inkscape:export-xdpi="93"
       inkscape:export-ydpi="93"><tspan
         x="235.10156"
         y="42.668521"><tspan
           style="font-style:normal;font-variant:normal;font-weight:normal;font-stretch:normal;font-family:'Bebas Neue';-inkscape-font-specification:'Bebas Neue';letter-spacing:26.4583px;fill:#ffffff;stroke:#000000;stroke-width:10;stroke-miterlimit:4;stroke-dasharray:none;paint-order:stroke fill markers">ABCDEFGHIJKLM</tspan></tspan><tspan
         x="235.10156"
         y="136.74266"><tspan
           style="font-style:normal;font-variant:normal;font-weight:normal;font-stretch:normal;font-family:'Bebas Neue';-inkscape-font-specification:'Bebas Neue';letter-spacing:26.4583px;fill:#ffffff;stroke:#000000;stroke-width:10;stroke-miterlimit:4;stroke-dasharray:none;paint-order:stroke fill markers">NOPQRSTUVWXY</tspan></tspan><tspan
         x="235.10156"
         y="230.81679"><tspan
           style="font-style:normal;font-variant:normal;font-weight:normal;font-stretch:normal;font-family:'Bebas Neue';-inkscape-font-specification:'Bebas Neue';letter-spacing:26.4583px;fill:#ffffff;stroke:#000000;stroke-width:10;stroke-miterlimit:4;stroke-dasharray:none;paint-order:stroke fill markers">Z</tspan></tspan></text>
    <path
       id="text979"
       style="font-size:105.833px;line-height:1.25;font-family:'Upheaval TT (BRK)';-inkscape-font-specification:'Upheaval TT (BRK)';letter-spacing:5.29167px;white-space:pre;shape-inside:url(#rect981);stroke-width:37.7953;stroke-miterlimit:4;stroke-dasharray:none"
       d="m 13604.609,-1839.5215 -45.599,280 h 40.801 l 8,-54.8008 h 49.998 v -0.7988 l 8,55.5996 h 44 l -45.6,-280 z m 27.6,48.8008 h 0.801 l 19.599,138.3984 h -39.599 z"
       transform="scale(0.26458333)" />
    <text
       xml:space="preserve"
       style="font-size:10.5833px;line-height:1.25;font-family:'Upheaval TT (BRK)';-inkscape-font-specification:'Upheaval TT (BRK)';letter-spacing:5.29167px;stroke-width:0.264583"
       x="3864.4285"
       y="-238.88094"
       id="text991"><tspan
         sodipodi:role="line"
         id="tspan989"
         x="3864.4285"
         y="-238.88094"
         style="stroke-width:0.264583">a</tspan></text>
    <text
       xml:space="preserve"
       id="text1003"
       style="font-size:105.83299999999999841px;line-height:1.25;font-family:'Upheaval TT (BRK)';-inkscape-font-specification:'Upheaval TT (BRK)';letter-spacing:5.29166999999999987px;white-space:pre;shape-inside:url(#rect1005);fill:#ffffff;stroke:#000000;stroke-width:10;stroke-miterlimit:4;stroke-dasharray:none;paint-order:stroke fill markers;"
       inkscape:export-xdpi="93"
       inkscape:export-ydpi="93"><tspan
         x="3252.1348"
         y="-299.48101"><tspan
           style="font-style:normal;font-variant:normal;font-weight:normal;font-stretch:normal;font-size:105.833px;font-family:'Bebas Neue';-inkscape-font-specification:'Bebas Neue';fill:#ffffff;stroke:#000000;stroke-width:10;stroke-miterlimit:4;stroke-dasharray:none;paint-order:stroke fill markers">Z</tspan></tspan></text>
    <rect
       style="fill:none;stroke:none;stroke-width:9.72529;stroke-linecap:round;stroke-miterlimit:4;stroke-dasharray:none;stroke-dashoffset:52.9134;paint-order:stroke fill markers"
       id="rect1009"
       width="102.6315"
       height="131.49661"
       x="3221.667"
       y="-401.97336"
       ry="22.85709"
       inkscape:export-xdpi="93"
       inkscape:export-ydpi="93" />
    <path
       id="path1011"
       style="fill:#ffffff;stroke:#000000;stroke-width:10;stroke-linecap:butt;stroke-linejoin:miter;stroke-miterlimit:4;stroke-dasharray:none;stroke-opacity:1;paint-order:stroke fill markers"
       d="m 3374.0107,-75.904538 6.4141,22.450827 12.2944,3.207038 2.6725,24.054348 h 223.4377 l 2.6726,-24.054348 12.2944,-3.207038 6.4145,-22.450827 h -22.4507 -221.2993 z"
       inkscape:export-xdpi="93"
       inkscape:export-ydpi="93" />
    <path
       id="path1011-9"
       style="fill:#ffffff;stroke:#000000;stroke-width:13;stroke-linecap:butt;stroke-linejoin:miter;stroke-miterlimit:4;stroke-dasharray:none;stroke-opacity:1;paint-order:stroke fill markers"
       d="m 3841.7323,-64.411992 6.4141,11.338327 12.2944,3.207038 2.6725,8.70851 h 223.4377 l 2.6726,-8.70851 12.2944,-3.207038 6.4145,-11.338327 h -22.4507 -221.2993 z"
       inkscape:export-xdpi="93"
       inkscape:export-ydpi="93"
       sodipodi:nodetypes="ccccccccccc" />
    <rect
       style="fill:#ffffff;stroke:#000000;stroke-width:14.7408;stroke-linecap:round;stroke-miterlimit:4;stroke-dasharray:none;stroke-dashoffset:52.9134;paint-order:stroke fill markers"
       id="rect1062"
       width="27.04623"
       height="57.247684"
       x="4295.9565"
       y="194.73616" />
    <path
       id="path1054"
       style="fill:#ffffff;stroke:#000000;stroke-width:18;stroke-linecap:round;stroke-miterlimit:4;stroke-dasharray:none;stroke-dashoffset:52.9134;paint-order:stroke fill markers"
       d="m 4069.2913,119.68276 a 72.329338,72.329338 0 0 0 -72.3294,72.32892 72.329338,72.329338 0 0 0 0.1426,4.53616 h 144.3736 a 72.329338,72.329338 0 0 0 0.1426,-4.53616 72.329338,72.329338 0 0 0 -72.3294,-72.32892 z"
       inkscape:export-xdpi="93"
       inkscape:export-ydpi="93" />
    <path
       id="rect1059"
       style="fill:#ffffff;stroke:#000000;stroke-width:17.5294;stroke-linecap:round;stroke-miterlimit:4;stroke-dasharray:none;stroke-dashoffset:52.9134;paint-order:stroke fill markers"
       d="m 4233.4323,239.81615 143.8109,-0.35071 23.0565,42.25269 h -183.4984 z"
       sodipodi:nodetypes="ccccc" />
    <rect
       style="fill:#ffffff;stroke:#000000;stroke-width:18;stroke-linecap:round;stroke-miterlimit:4;stroke-dasharray:none;stroke-dashoffset:52.9134;paint-order:stroke fill markers"
       id="rect1066"
       width="6.8035712"
       height="41.577381"
       x="4251.854"
       y="72.571426"
       ry="3.4017856"
       inkscape:export-xdpi="93"
       inkscape:export-ydpi="93" />
    <rect
       style="fill:#ffffff;stroke:#000000;stroke-width:18;stroke-linecap:round;stroke-miterlimit:4;stroke-dasharray:none;stroke-dashoffset:52.9134;paint-order:stroke fill markers"
       id="rect1064"
       width="51.404762"
       height="21.166666"
       x="4229.5532"
       y="59.720234"
       ry="6.0476189"
       inkscape:export-xdpi="93"
       inkscape:export-ydpi="93" />
    <path
       id="rect1068"
       style="fill:#ffffff;stroke:#000000;stroke-width:18;stroke-linecap:round;stroke-miterlimit:10;stroke-dasharray:none;stroke-dashoffset:52.9134;paint-order:stroke fill markers"
       d="m 3421.619,520.095 c -12.663,0 -22.8571,10.19472 -22.8571,22.85754 v 280.85727 c 0,12.66283 10.1941,22.85698 22.8571,22.85698 h 284.6141 l 17.585,45.35694 20.2917,-45.35694 h 284.9377 c 12.6627,0 22.8568,-10.19415 22.8568,-22.85698 V 542.95254 c 0,-12.66282 -10.1941,-22.85754 -22.8568,-22.85754 z"
       sodipodi:nodetypes="sssscccsssss"
       inkscape:export-xdpi="93"
       inkscape:export-ydpi="93" />
    <path
       id="path1091"
       style="fill:#ffffff;stroke:#000000;stroke-width:20;stroke-linecap:butt;stroke-linejoin:miter;stroke-miterlimit:4;stroke-dasharray:none;stroke-opacity:1"
       d="m 5016.8378,453.28926 c -31.9797,0.072 -62.6185,10.12828 -85.1993,27.96413 -22.5809,17.83583 -35.261,41.99589 -35.261,67.18356 0,24.75362 12.2481,48.53278 34.1447,66.29 l -57.6643,90.86474 10.6907,198.84832 113.3224,213.81589 32.072,-25.6579 -12.9363,-156.19302 c 23.7326,-46.19789 10.6087,-124.8733 11.058,-190.47393 l 23.2603,8.83801 c 13.8666,48.80988 54.9794,97.60899 47.0395,158.22339 l -66.2832,171.05265 34.2104,23.52 115.4607,-147.53314 19.2432,-213.81537 -74.3768,-155.83803 c 8.1386,-13.05234 12.3703,-27.40024 12.3703,-41.94161 0,-25.2348 -8.192,-60.01935 -30.8477,-77.86301 -22.6555,-17.84364 -57.9186,-17.28473 -89.9584,-17.28468 -0.1151,-1.3e-4 -0.2302,-1.3e-4 -0.3452,0 z"
       sodipodi:nodetypes="cssccccccccccccccsssc"
       inkscape:export-xdpi="93"
       inkscape:export-ydpi="93" />
    <path
       style="fill:#ffffff;stroke:#000000;stroke-width:12;stroke-linecap:butt;stroke-linejoin:miter;stroke-miterlimit:4;stroke-dasharray:none;stroke-opacity:1"
       d="m 4887.022,888.72757 77.1072,-27.2143"
       id="path1096"
       inkscape:export-xdpi="93"
       inkscape:export-ydpi="93" />
    <path
       style="fill:#ffffff;stroke:#000000;stroke-width:12;stroke-linecap:butt;stroke-linejoin:miter;stroke-miterlimit:4;stroke-dasharray:none;stroke-opacity:1"
       d="m 4889.9631,925.82157 74.0899,-20.38709"
       id="path1098"
       inkscape:export-xdpi="93"
       inkscape:export-ydpi="93" />
    <path
       style="fill:#ffffff;stroke:#000000;stroke-width:12;stroke-linecap:butt;stroke-linejoin:miter;stroke-miterlimit:4;stroke-dasharray:none;stroke-opacity:1"
       d="m 5049.8649,1092.6958 28.7261,-51.4048 25.7024,9.0714"
       id="path1100"
       inkscape:export-xdpi="93"
       inkscape:export-ydpi="93" />
    <path
       style="fill:#ffffff;stroke:#000000;stroke-width:12;stroke-linecap:butt;stroke-linejoin:miter;stroke-miterlimit:4;stroke-dasharray:none;stroke-opacity:1"
       d="m 4962.1743,1039.7791 27.2142,-6.0476 25.7025,68.0357"
       id="path1102"
       inkscape:export-xdpi="93"
       inkscape:export-ydpi="93" />
    <path
       style="fill:#ffffff;stroke:#000000;stroke-width:12;stroke-linecap:butt;stroke-linejoin:miter;stroke-miterlimit:4;stroke-dasharray:none;stroke-opacity:1"
       d="m 5168.9925,973.93015 c -7.4835,-6.41448 -28.865,-17.10526 -28.865,-17.10526"
       id="path1104"
       inkscape:export-xdpi="93"
       inkscape:export-ydpi="93" />
    <path
       style="fill:#ffffff;stroke:#000000;stroke-width:12;stroke-linecap:butt;stroke-linejoin:miter;stroke-miterlimit:4;stroke-dasharray:none;stroke-opacity:1"
       d="M 5175.407,946.13411 5149.7491,926.8907"
       id="path1106"
       inkscape:export-xdpi="93"
       inkscape:export-ydpi="93" />
    <path
       style="fill:none;stroke:#000000;stroke-width:13;stroke-linecap:round;stroke-linejoin:miter;stroke-miterlimit:4;stroke-dasharray:none;stroke-opacity:1"
       d="M 5182.8906,525.98642 C 5193.5586,390.00245 5084.7479,393.4103 4960.5223,414.80229"
       id="path1108"
       sodipodi:nodetypes="cc"
       inkscape:export-xdpi="93"
       inkscape:export-ydpi="93" />
    <path
       style="fill:none;stroke:#000000;stroke-width:13;stroke-linecap:round;stroke-linejoin:miter;stroke-miterlimit:4;stroke-dasharray:none;stroke-opacity:1"
       d="M 5212.8247,444.73648 C 5195.3857,258.04926 5019.897,379.55892 4898.5159,395.5589"
       id="path1110"
       sodipodi:nodetypes="cc"
       inkscape:export-xdpi="93"
       inkscape:export-ydpi="93" />
    <path
       id="path1091-9"
       style="fill:#ffffff;stroke:#000000;stroke-width:20;stroke-linecap:butt;stroke-linejoin:miter;stroke-miterlimit:4;stroke-dasharray:none;stroke-opacity:1"
       d="m 5845.0395,359.80918 c -31.9797,0.072 -62.6185,10.12828 -85.1993,27.96413 -22.5809,17.83583 -35.261,41.99589 -35.261,67.18356 0,24.75362 12.2481,48.53278 34.1447,66.29 l -57.6643,90.86474 -28.6188,189.77687 54.3581,218.35162 36.6077,0.044 41.4923,-186.43112 c 6.3007,-54.91384 33.1422,-124.18988 50.3675,-181.40251 l 23.2603,8.83801 c 13.8666,48.80988 54.9794,97.60903 47.0395,158.22343 l -11.8546,206.58239 35.7223,12.9367 59.5202,-172.47959 19.2432,-213.8154 -74.3768,-155.83803 c 8.1386,-13.05234 12.3703,-27.40024 12.3703,-41.94161 0,-25.2348 -8.192,-60.01935 -30.8477,-77.86301 -22.6555,-17.84364 -57.9186,-17.28473 -89.9584,-17.28468 -0.1151,-1.3e-4 -0.2302,-1.3e-4 -0.3452,0 z"
       sodipodi:nodetypes="cssccccccccccccccssscc"
       inkscape:export-xdpi="93"
       inkscape:export-ydpi="93" />
    <path
       style="fill:#ffffff;stroke:#000000;stroke-width:12;stroke-linecap:butt;stroke-linejoin:miter;stroke-miterlimit:4;stroke-dasharray:none;stroke-opacity:1"
       d="m 5677.9722,790.42233 80.3851,-14.9792"
       id="path1096-0"
       inkscape:export-xdpi="93"
       inkscape:export-ydpi="93" />
    <path
       style="fill:#ffffff;stroke:#000000;stroke-width:12;stroke-linecap:butt;stroke-linejoin:miter;stroke-miterlimit:4;stroke-dasharray:none;stroke-opacity:1"
       d="m 5675.1491,827.5255 76.3496,-8.69991"
       id="path1098-4"
       inkscape:export-xdpi="93"
       inkscape:export-ydpi="93" />
    <path
       style="fill:none;stroke:#000000;stroke-width:12;stroke-linecap:butt;stroke-linejoin:miter;stroke-miterlimit:4;stroke-dasharray:none;stroke-opacity:1"
       d="m 5932.6154,1025.4455 11.317,-57.78899 27.249,0.62922"
       id="path1100-0"
       inkscape:export-xdpi="93"
       inkscape:export-ydpi="93"
       sodipodi:nodetypes="ccc" />
    <path
       style="fill:#ffffff;stroke:#000000;stroke-width:12;stroke-linecap:butt;stroke-linejoin:miter;stroke-miterlimit:4;stroke-dasharray:none;stroke-opacity:1"
       d="m 5711.8156,942.76526 27.8509,1.23105 7.1423,72.37719"
       id="path1102-2"
       inkscape:export-xdpi="93"
       inkscape:export-ydpi="93" />
    <path
       style="fill:#ffffff;stroke:#000000;stroke-width:12;stroke-linecap:butt;stroke-linejoin:miter;stroke-miterlimit:4;stroke-dasharray:none;stroke-opacity:1"
       d="m 5990.3906,909.1763 c -7.4835,-6.4145 -28.865,-17.1053 -28.865,-17.1053"
       id="path1104-4"
       inkscape:export-xdpi="93"
       inkscape:export-ydpi="93"
       sodipodi:nodetypes="cc" />
    <path
       style="fill:#ffffff;stroke:#000000;stroke-width:12;stroke-linecap:butt;stroke-linejoin:miter;stroke-miterlimit:4;stroke-dasharray:none;stroke-opacity:1"
       d="m 5996.8051,881.3802 -25.6579,-19.2434"
       id="path1106-4"
       inkscape:export-xdpi="93"
       inkscape:export-ydpi="93"
       sodipodi:nodetypes="cc" />
    <path
       style="fill:none;stroke:#000000;stroke-width:13;stroke-linecap:round;stroke-linejoin:miter;stroke-miterlimit:4;stroke-dasharray:none;stroke-opacity:1"
       d="M 6011.0923,432.50634 C 6039.5577,269.82627 5915.7316,295.75729 5788.724,321.32221"
       id="path1108-1"
       sodipodi:nodetypes="cc"
       inkscape:export-xdpi="93"
       inkscape:export-ydpi="93" />
    <path
       style="fill:none;stroke:#000000;stroke-width:13;stroke-linecap:round;stroke-linejoin:miter;stroke-miterlimit:4;stroke-dasharray:none;stroke-opacity:1"
       d="M 6041.0264,351.2564 C 6063.043,147.03336 5855.314,282.87205 5726.7176,302.07882"
       id="path1110-9"
       sodipodi:nodetypes="cc"
       inkscape:export-xdpi="93"
       inkscape:export-ydpi="93" />
    <rect
       style="fill:none;stroke:none;stroke-width:13;stroke-linecap:round;stroke-miterlimit:4;stroke-dasharray:none;stroke-dashoffset:52.9134;paint-order:stroke fill markers"
       id="rect1164"
       width="1967.1036"
       height="350.65762"
       x="5105.917"
       y="-1522.3673"
       ry="22.85709"
       inkscape:export-xdpi="93"
       inkscape:export-ydpi="93" />
    <path
       style="fill:#ffffff;stroke:#ffffff;stroke-width:20;stroke-linecap:butt;stroke-linejoin:miter;stroke-miterlimit:4;stroke-dasharray:none;stroke-opacity:1"
       d="M 5134.4284,-1206.5 H 7036.4047"
       id="path1166"
       inkscape:export-xdpi="93"
       inkscape:export-ydpi="93" />
    <circle
       style="fill:none;stroke:#000000;stroke-width:50;stroke-linecap:round;stroke-miterlimit:4;stroke-dasharray:50, 200;stroke-dashoffset:30;paint-order:stroke fill markers"
       id="path1168"
       cx="7406.5732"
       cy="752.63098"
       r="273.68399"
       inkscape:export-xdpi="93"
       inkscape:export-ydpi="93" />
    <path
       style="color:#000000;font-style:normal;font-variant:normal;font-weight:normal;font-stretch:normal;font-size:medium;line-height:normal;font-family:sans-serif;font-variant-ligatures:normal;font-variant-position:normal;font-variant-caps:normal;font-variant-numeric:normal;font-variant-alternates:normal;font-variant-east-asian:normal;font-feature-settings:normal;font-variation-settings:normal;text-indent:0;text-align:start;text-decoration:none;text-decoration-line:none;text-decoration-style:solid;text-decoration-color:#000000;letter-spacing:normal;word-spacing:normal;text-transform:none;writing-mode:lr-tb;direction:ltr;text-orientation:mixed;dominant-baseline:auto;baseline-shift:baseline;text-anchor:start;white-space:normal;shape-padding:0;shape-margin:0;inline-size:0;clip-rule:nonzero;display:inline;overflow:visible;visibility:visible;opacity:1;isolation:auto;mix-blend-mode:normal;color-interpolation:sRGB;color-interpolation-filters:linearRGB;solid-color:#000000;solid-opacity:1;vector-effect:none;fill:#ffffff;fill-opacity:1;fill-rule:nonzero;stroke:#ffffff;stroke-linecap:round;stroke-linejoin:miter;stroke-miterlimit:4;stroke-dasharray:50, 200;stroke-dashoffset:30;stroke-opacity:1;paint-order:stroke fill markers;color-rendering:auto;image-rendering:auto;shape-rendering:auto;text-rendering:auto;enable-background:accumulate;stop-color:#000000;stop-opacity:1"
       d="m 9040.2683,1288.3972 c -0.03,-0.6163 -0.079,-1.2316 -0.1522,-1.8443 -2.1809,-18.0564 -6.0094,-35.9132 -11.4552,-53.2918 -4.1281,-13.1752 -18.1552,-20.5095 -31.3305,-16.3817 -13.1762,4.1282 -20.5107,18.1566 -16.3816,31.3325 4.5217,14.4298 7.7116,29.3022 9.5278,44.338 1.6559,13.7077 14.1106,23.4774 27.8183,21.8213 12.9948,-1.5704 22.5783,-12.8985 21.9739,-25.974 z m -131.9008,-202.3005 c -0.4295,-8.3426 -4.998,-15.9194 -12.1753,-20.1937 -15.632,-9.3086 -32.1109,-17.1812 -49.1907,-23.4858 -12.9529,-4.7819 -27.3298,1.8421 -32.1114,14.7951 -4.7818,12.9534 1.8432,27.3305 14.797,32.1113 14.1911,5.2383 27.9162,11.7947 40.9239,19.5405 11.8633,7.0643 27.2072,3.1736 34.2711,-8.6899 2.5273,-4.2451 3.74,-9.1437 3.4854,-14.0775 z m -240.6428,-19.1547 c -0.1429,-2.721 -0.7201,-5.4016 -1.7231,-7.9351 -5.0836,-12.8371 -19.611,-19.1226 -32.4481,-14.0393 -16.9303,6.7043 -33.2235,14.968 -48.6327,24.6518 -11.6905,7.3466 -15.2117,22.7793 -7.865,34.4696 7.3466,11.6904 22.7793,15.2117 34.4696,7.865 12.8134,-8.0524 26.3754,-14.9307 40.4369,-20.499 9.9659,-3.9469 16.3067,-13.8078 15.7624,-24.513 z m -162.2326,178.6777 c -0.5953,-10.6093 -7.8321,-19.683 -18.0432,-22.6233 -13.2681,-3.8197 -27.1206,3.8397 -30.9404,17.1078 -5.039,17.5032 -8.4488,35.4521 -10.196,53.5651 -1.3259,13.7437 8.741,25.9599 22.4847,27.2853 13.7438,1.3259 25.9599,-8.7411 27.2852,-22.4848 1.4533,-15.0661 4.2916,-30.0033 8.4745,-44.5329 0.7769,-2.7001 1.093,-5.5119 0.9352,-8.3172 z"
       id="path1168-6"
       sodipodi:nodetypes="scsssssssssssssssssssssscssssssc" />
    <circle
       style="fill:none;stroke:none;stroke-width:50;stroke-linecap:round;stroke-miterlimit:4;stroke-dasharray:50, 200;stroke-dashoffset:30;paint-order:stroke fill markers"
       id="path1168-9"
       cx="8733.499"
       cy="1322.4688"
       r="273.68399"
       inkscape:export-xdpi="93"
       inkscape:export-ydpi="93" />
    <circle
       style="fill:none;stroke:none;stroke-width:12;stroke-linecap:round;stroke-miterlimit:4;stroke-dasharray:none;stroke-dashoffset:113.386;paint-order:stroke fill markers"
       id="path1217"
       cx="4705.3218"
       cy="-101.52332"
       r="33.313854"
       inkscape:export-xdpi="93"
       inkscape:export-ydpi="93" />
    <circle
       style="fill:none;stroke:#ffffff;stroke-width:12;stroke-linecap:round;stroke-miterlimit:4;stroke-dasharray:none;stroke-dashoffset:113.386;paint-order:stroke fill markers"
       id="path1217-32"
       cx="4459.4453"
       cy="-74.087112"
       r="33.313854"
       inkscape:export-xdpi="93"
       inkscape:export-ydpi="93" />
    <circle
       style="fill:#ffffff;stroke:#000000;stroke-width:8;stroke-linecap:round;stroke-dashoffset:113.386;paint-order:stroke fill markers;stroke-miterlimit:4;stroke-dasharray:none"
       id="path934"
       cx="4749.0586"
       cy="78.203072"
       r="23.001318" />
    <path
       id="rect936"
       style="fill:#ffffff;stroke:#000000;stroke-width:7;stroke-linecap:round;stroke-dashoffset:113.386;paint-order:stroke fill markers;stroke-miterlimit:4;stroke-dasharray:none"
       d="m 4810.3549,131.19116 c -2.3375,0 -4.2195,1.88177 -4.2195,4.21929 v 45.8114 l -11.4987,11.49882 c -1.6529,1.65287 -1.6529,4.3142 0,5.96707 l 13.7647,13.76476 c 1.6529,1.65288 4.3143,1.65288 5.9671,0 l 13.7647,-13.76476 c 1.6529,-1.65287 1.6529,-4.3142 0,-5.96707 l -11.4987,-11.49882 v -45.8114 c 0,-2.33752 -1.8818,-4.21929 -4.2194,-4.21929 z"
       inkscape:export-xdpi="93"
       inkscape:export-ydpi="93" />
    <path
       id="path943"
       style="fill:#ffffff;stroke:#000000;stroke-width:4;stroke-linecap:round;stroke-miterlimit:20;stroke-dasharray:none;stroke-dashoffset:113.386;paint-order:normal;stroke-linejoin:round"
       d="m 4698.8904,155.27785 c -2.5899,6.11444 -8.5862,10.08661 -15.2265,10.08673 -6.6404,2.1e-4 -12.6369,-3.97177 -15.2271,-10.08621 -21.9315,2.88572 -37.8457,65.62655 -37.8457,121.79361 1e-4,1.21493 0.01,2.42979 0.022,3.64421 h 106.1016 c 0.014,-1.21443 0.021,-2.4293 0.021,-3.64421 1e-4,-56.16726 -13.7975,-121.79413 -37.8457,-121.79413 z"
       inkscape:export-xdpi="93"
       inkscape:export-ydpi="93"
       sodipodi:nodetypes="sscscccss" />
    <ellipse
       style="fill:#ffffff;stroke:#000000;stroke-width:4.99999;stroke-linecap:round;stroke-linejoin:round;stroke-miterlimit:4;stroke-dasharray:none;stroke-dashoffset:113.386;paint-order:stroke fill markers"
       id="path959"
       cx="4946.3857"
       cy="140.49374"
       rx="25.135416"
       ry="19.84375"
       inkscape:export-xdpi="93"
       inkscape:export-ydpi="93" />
    <rect
       style="fill:#ffffff;stroke:#000000;stroke-width:5.29166667;stroke-linecap:round;stroke-linejoin:round;stroke-miterlimit:4;stroke-dasharray:none;stroke-dashoffset:113.386;paint-order:stroke fill markers"
       id="rect953"
       width="16.630983"
       height="10.123208"
       x="4816.8765"
       y="-1018.5741"
       ry="5.061604"
       transform="rotate(14.226401)"
       inkscape:export-xdpi="93"
       inkscape:export-ydpi="93" />
    <rect
       style="fill:#ffffff;stroke:#000000;stroke-width:5.29166667;stroke-linecap:round;stroke-linejoin:round;stroke-miterlimit:4;stroke-dasharray:none;stroke-dashoffset:113.386;paint-order:stroke fill markers"
       id="rect951"
       width="29.887566"
       height="28.682421"
       x="4895.0757"
       y="194.9442"
       ry="10.411117"
       inkscape:export-xdpi="93"
       inkscape:export-ydpi="93" />
    <path
       style="fill:none;stroke:#000000;stroke-width:2.64583333;stroke-linecap:round;stroke-linejoin:miter;stroke-miterlimit:4;stroke-dasharray:none;stroke-opacity:1"
       d="m 4904.5019,223.61828 v -9.84634"
       id="path955"
       inkscape:export-xdpi="93"
       inkscape:export-ydpi="93" />
    <path
       style="fill:none;stroke:#000000;stroke-width:2.64583333;stroke-linecap:round;stroke-linejoin:miter;stroke-miterlimit:4;stroke-dasharray:none;stroke-opacity:1"
       d="m 4915.7943,223.35915 v -9.58721"
       id="path957"
       inkscape:export-xdpi="93"
       inkscape:export-ydpi="93" />
    <rect
       style="fill:none;stroke:none;stroke-width:2.64583;stroke-linecap:round;stroke-linejoin:round;stroke-miterlimit:4;stroke-dasharray:none;stroke-dashoffset:113.386;paint-order:stroke fill markers"
       id="rect961"
       width="110.00813"
       height="110.00813"
       x="4864.3052"
       y="-94.292694"
       ry="11.1125"
       inkscape:export-xdpi="93"
       inkscape:export-ydpi="93" />
    <rect
       style="fill:#ffffff;stroke:#000000;stroke-width:2.64583;stroke-linecap:round;stroke-linejoin:round;stroke-miterlimit:4;stroke-dasharray:none;stroke-dashoffset:113.386;paint-order:stroke fill markers"
       id="rect963"
       width="147.42587"
       height="13.470385"
       x="4844.8477"
       y="38.166088"
       ry="6.7351923" />
    <rect
       style="fill:#ffffff;stroke:#000000;stroke-width:1.32291;stroke-linecap:round;stroke-linejoin:round;stroke-miterlimit:4;stroke-dasharray:none;stroke-dashoffset:113.386;paint-order:stroke fill markers"
       id="rect985"
       width="6.0854154"
       height="6.0854154"
       x="5070.3423"
       y="-31.353123"
       ry="3.0427077" />
    <path
       id="use1099"
       style="fill:#ffffff;stroke:#000000;stroke-width:7;stroke-linecap:round;stroke-linejoin:round;stroke-miterlimit:4;stroke-dasharray:none;stroke-dashoffset:113.386;paint-order:stroke fill markers"
       d="m 4656.165,-106.38007 c -2.8956,-0.0333 -5.4565,1.38448 -6.9977,3.57911 -0.389,0.0895 -0.7586,0.22587 -1.1073,0.39739 -1.3782,-1.38195 -3.2142,-2.3096 -5.2753,-2.53834 -0.9075,-0.38292 -1.906,-0.59564 -2.9559,-0.59738 -2.6702,-0.004 -5.0115,1.35534 -6.3712,3.42356 -0.7017,0.21039 -1.3541,0.5341 -1.9351,0.95136 -0.01,-6e-5 -0.01,-9.8e-4 -0.015,-10e-4 -2.0635,-0.0201 -3.8161,1.284912 -4.4638,3.12384 -1.003,-0.541578 -2.1471,-0.860266 -3.3692,-0.885216 -4.0963,-0.08362 -7.4612,3.146311 -7.5448,7.24245 -0.042,2.048071 0.7456,3.914013 2.0547,5.277715 -1.1549,0.957048 -1.8989,2.393768 -1.9219,4.017844 -0.014,0.959725 0.2288,1.859944 0.6593,2.641697 -0.604,0.712653 -0.9731,1.632551 -0.9874,2.643767 -3e-4,0.0065 5e-4,0.01267 5e-4,0.01912 -0.7958,0.894054 -1.2784,2.072659 -1.2676,3.369305 0.01,1.237242 0.4657,2.361432 1.2113,3.227191 -0.4104,0.932045 -0.6282,1.967267 -0.6028,3.056144 0.093,3.96045 3.356,7.074181 7.3166,6.981487 3.9603,-0.09269 7.0741,-3.355383 6.9815,-7.315833 -0.01,-0.233267 -0.023,-0.463484 -0.05,-0.690396 2.731,-1.020132 4.6699,-3.602992 4.7696,-6.646105 0.057,-0.0189 0.1132,-0.03962 0.1696,-0.05994 0.3455,0.03435 0.6964,0.05159 1.0522,0.04599 2.0217,-0.03181 3.8728,-0.721318 5.3547,-1.861902 1.6309,-0.516713 3.0311,-1.533121 4.0267,-2.869076 0.065,-0.05136 0.128,-0.104725 0.1905,-0.158647 0.3291,0.06484 0.6683,0.103347 1.016,0.109556 1.8158,0.03243 3.4401,-0.780441 4.5082,-2.074809 0.7713,1.834798 2.5649,3.132619 4.6892,3.168798 0.431,0.0073 0.848,-0.04348 1.2497,-0.134874 0.8228,0.806778 1.9558,1.297011 3.2043,1.27899 0.1191,-0.0017 0.2358,-0.01252 0.3524,-0.02325 0.033,0.106371 0.069,0.211183 0.1053,0.315743 -0.1336,0.591037 -0.2045,1.206339 -0.1994,1.839683 0.021,2.655686 1.3274,4.988253 3.3255,6.418212 0.026,0.08531 0.054,0.169672 0.084,0.253214 -0.01,0.119843 -0.013,0.240189 -0.014,0.361736 -0.019,1.406345 0.389,2.715191 1.1036,3.804417 0.8567,2.674408 3.365,4.591989 6.3283,4.571299 3.6547,-0.02552 6.5768,-2.988284 6.5511,-6.643008 -0.01,-0.907925 -0.1942,-1.770345 -0.5287,-2.553848 -0.065,-0.484119 -0.1817,-0.951426 -0.3431,-1.397331 1.0938,-1.418674 1.733,-3.204916 1.7028,-5.143354 -0.022,-1.423353 -0.4016,-2.754111 -1.0522,-3.908806 0.011,-0.188378 0.018,-0.378042 0.017,-0.569473 -0.025,-3.675851 -2.295,-6.790317 -5.5058,-8.061524 0.056,-0.244374 0.1016,-0.492466 0.1371,-0.74414 0.8824,-1.210244 1.4182,-2.694064 1.4563,-4.311367 0.087,-3.72676 -2.4919,-6.872029 -6.0034,-7.621759 -1.27,-1.67173 -3.2047,-2.81251 -5.429,-3.02927 -1.4827,-1.39237 -3.4732,-2.25362 -5.6766,-2.27893 z"
       inkscape:export-xdpi="93"
       inkscape:export-ydpi="93" />
    <path
       id="use2410"
       style="fill:#ffffff;stroke:#000000;stroke-width:7;stroke-linecap:round;stroke-linejoin:round;stroke-miterlimit:4;stroke-dasharray:none;stroke-dashoffset:113.386;paint-order:stroke fill markers"
       d="m 4707.7177,-138.14557 c -1.1449,0.0154 -2.1474,0.5773 -2.7723,1.43195 -0.747,-0.54028 -1.6651,-0.85831 -2.6615,-0.84852 -1.003,0.01 -1.9203,0.3502 -2.6588,0.91157 -1.6094,0.009 -2.958,1.12075 -3.3112,2.63498 -0.5977,0.23202 -1.1227,0.6044 -1.536,1.079 -0.014,-0.002 -0.029,-0.004 -0.043,-0.006 0,-0.0419 0.01,-0.0834 0.01,-0.12609 -0.01,-0.51409 -0.2318,-0.97139 -0.5858,-1.28726 -0.3074,-1.0459 -1.2621,-1.81437 -2.4125,-1.83555 -1.3128,-0.0242 -2.4053,0.93393 -2.5836,2.2009 -0.1244,0.24703 -0.1974,0.52453 -0.2016,0.82062 -0.014,0.99881 0.7463,1.8195 1.7269,1.8986 0.2265,0.0967 0.4699,0.16195 0.7252,0.19017 -0.077,0.0921 -0.1458,0.19176 -0.2053,0.29714 -0.081,0.0672 -0.1582,0.13966 -0.2342,0.2129 -0.9718,0.77544 -1.5872,1.97426 -1.5652,3.31918 0.023,1.39546 0.7257,2.61203 1.7864,3.34863 0.063,0.0909 0.1323,0.17762 0.2064,0.25942 -0.015,0.16118 -0.023,0.3242 -0.021,0.48989 0.035,2.48462 2.0643,4.45628 4.549,4.42092 0.9694,-0.0138 1.8581,-0.33367 2.5828,-0.863 0.4572,0.34507 1.029,0.54641 1.6489,0.53434 0.1765,-0.003 0.3477,-0.0247 0.5136,-0.0605 0.082,0.04 0.1669,0.076 0.2534,0.108 0.5371,0.48296 1.2346,0.78853 2.005,0.83096 0.2953,0.0936 0.6096,0.14517 0.9369,0.14573 1.2764,0.002 2.3675,-0.76052 2.8454,-1.85725 0.2214,-0.16851 0.4243,-0.3601 0.5998,-0.57568 0.6257,0.41197 1.3671,0.66116 2.1669,0.6966 0.4228,0.13531 0.8739,0.20913 1.3436,0.20567 1.5779,-0.0116 2.9411,-0.86945 3.674,-2.1394 1.5621,-0.52403 2.6738,-2.00238 2.6548,-3.74293 -0.014,-1.28362 -0.6429,-2.40808 -1.6015,-3.10833 0.092,-0.32 0.141,-0.65884 0.1368,-1.00976 -0.011,-0.99086 -0.434,-1.87518 -1.1023,-2.49959 0,-0.009 0,-0.0186 0,-0.0279 0.01,-0.0659 0.01,-0.1328 0.01,-0.20051 0,-0.47015 -0.1749,-0.89826 -0.4559,-1.22938 -0.6112,-1.19475 -1.7394,-2.07697 -3.0954,-2.34766 -0.5,-1.34532 -1.7973,-2.29274 -3.3186,-2.27221 z"
       inkscape:export-xdpi="93"
       inkscape:export-ydpi="93" />
    <path
       style="fill:#ffffff;stroke:#000000;stroke-width:7;stroke-linecap:butt;stroke-linejoin:miter;stroke-miterlimit:4;stroke-dasharray:none;stroke-opacity:1;paint-order:stroke fill markers"
       d="m 4910.9312,-13.271229 c -4.0169,5.2275192 -3.5268,10.9558222 -3.175,16.6687492 l 5.2917,-1.852083 c -0.1939,4.642531 1.9861,8.8102828 4.2333,12.9645848 2.8864,-5.5963518 3.2461,-10.7715688 3.175,-15.8750018 l 6.8792,3.704167 c 1.2312,-2.37985004 0.9969,-4.173494 -0.2646,-5.55625 l 6.0854,0.79375 c -1.5325,-5.190487 -2.9642,-10.4649772 -7.4083,-13.2291662 -7.4171,-4.988703 -11.879,-3.082024 -14.8167,2.38125 z"
       id="path2745"
       sodipodi:nodetypes="cccccccccc"
       inkscape:export-xdpi="93"
       inkscape:export-ydpi="93" />
    <path
       id="rect2767"
       style="fill:#ffffff;stroke:none;stroke-width:3;stroke-linecap:round;stroke-linejoin:round;stroke-miterlimit:4;stroke-dasharray:none;stroke-dashoffset:113.386;paint-order:stroke fill markers"
       d="m 4562.8313,169.85731 c -22.2174,4.54267 -44.3167,5.29699 -66.2559,0.9369 -1.8598,3.38727 -3.6203,7.2259 -5.2697,11.44064 25.2185,5.87574 50.8492,5.45722 76.8172,-0.67592 -1.6319,-4.33712 -3.3967,-8.26911 -5.2916,-11.70162 z m 9.34,24.22075 c -29.1192,6.46712 -57.4897,7.8386 -85.2191,0.98495 -1.13,3.83182 -2.1847,7.84825 -3.1567,12.01684 30.4149,8.74987 61.0076,8.21463 91.4164,-0.59428 -0.9258,-4.30902 -1.9404,-8.45921 -3.0406,-12.40751 z m 5.9709,28.40705 c -32.7615,7.30287 -65.3047,8.45059 -97.5233,0.42943 -0.6792,3.97734 -1.288,8.0342 -1.8227,12.14551 33.5647,9.1718 67.3359,8.79413 101.0213,-0.11214 -0.4868,-4.21442 -1.0454,-8.37847 -1.6753,-12.4628 z m 3.134,28.09958 c -35.0108,7.97929 -69.7765,9.46073 -104.1662,0.56224 -0.3768,4.7058 -0.6546,9.43398 -0.8263,14.14797 34.5784,9.03171 69.8778,8.15044 105.7383,-0.44545 -0.1561,-4.73989 -0.4051,-9.50859 -0.7458,-14.26476 z"
       inkscape:export-xdpi="93"
       inkscape:export-ydpi="93" />
    <path
       id="path943-7"
       style="display:inline;fill:none;stroke:#000000;stroke-width:4;stroke-linecap:round;stroke-linejoin:round;stroke-miterlimit:20;stroke-dasharray:none;stroke-dashoffset:113.386;paint-order:stroke fill markers"
       d="m 4544.3737,154.74868 c -2.5899,6.11444 -8.5862,10.08661 -15.2265,10.08673 -6.6404,2.1e-4 -12.6369,-3.97177 -15.2271,-10.08621 -21.9315,2.88572 -37.8457,65.62655 -37.8457,121.79361 10e-5,1.21493 0.01,2.42979 0.022,3.64421 h 106.1016 c 0.014,-1.21443 0.021,-2.4293 0.021,-3.64421 1e-4,-56.16726 -13.7975,-121.79413 -37.8457,-121.79413 z"
       inkscape:export-xdpi="93"
       inkscape:export-ydpi="93"
       sodipodi:nodetypes="sscscccss" />
  </g>
</svg>
